<svg height="492" viewBox="0 0 135.46667 130.17499" width="512" xmlns="http://www.w3.org/2000/svg" xmlns:xlink="http://www.w3.org/1999/xlink"><linearGradient id="a" gradientUnits="userSpaceOnUse" x1="-132.6669713542" x2="-38.3071548626" y1="485.5030315542" y2="468.9271051374"><stop offset="0" stop-color="#511400"/><stop offset="1" stop-color="#90260f"/></linearGradient><linearGradient id="b" gradientUnits="userSpaceOnUse" x1="-132.730997" x2="-107.937998" y1="471.90999" y2="467.71"><stop offset="0" stop-color="#ffcf8f"/><stop offset="1" stop-color="#f2b360"/></linearGradient><g transform="matrix(1.3067104 0 0 1.3078301 264.63107 -211.60626)"><path d="m-155.52 161.8-3.7259 6.4125-6.3725-4.8009-2.7645 7.1159-6.3224-2.8756-1.1781 6.9972-7.6605-1.2914.5779 7.4168-7.405.23992 1.5098 7.605-7.4316 1.1857 3.3189 7.4686-7.1398 2.7729 4.2773 6.2509-6.6806 5.8106 51.835 48.922-42.67-40.28c3.3677-11.479 13.156-17.113 22.599-17.003 8.8471.10308 17.391 5.2478 20.071 15.35 5.5402-20.886 36.147-20.581 42.67 1.6525l-42.67 40.28 51.835-48.922-6.6806-5.8106 4.2772-6.2509-7.1398-2.7729 3.3189-7.4686-7.4315-1.1857 1.5094-7.605-7.405-.23992.57833-7.4168-7.6605 1.2914-1.1781-6.9972-6.3224 2.8756-2.7645-7.1159-6.373 4.8009-3.7254-6.4125-4.8375 5.2218z" fill="url(#a)" stroke-linecap="round" stroke-linejoin="round" stroke-width="6.965"/><path d="m-150.66 219.18c-5.4816-20.968-36.161-20.692-42.692 1.5708l42.67 40.28z" fill="url(#b)"/><path d="m-150.7 219.18c5.4816-20.968 36.161-20.692 42.692 1.5708l-42.67 40.28z" fill="#fbcc8d"/><g stroke-width="1.2277" transform="matrix(.81451 0 0 .81451 -104.28 53.375)"><path d="m-65.184 212.33a4.9361 5.0558 0 0 1 -4.9361 5.0558 4.9361 5.0558 0 0 1 -4.9361-5.0558 4.9361 5.0558 0 0 1 4.9361-5.0558 4.9361 5.0558 0 0 1 4.9361 5.0558"/><path d="m-67.19 211.28a1.3064 1.2951 0 0 1 -1.3064 1.2951 1.3064 1.2951 0 0 1 -1.3064-1.2951 1.3064 1.2951 0 0 1 1.3064-1.2951 1.3064 1.2951 0 0 1 1.3064 1.2951" fill="#fff"/></g><g stroke-width="1.2277" transform="matrix(.81451 0 0 .81451 -104.28 53.375)"><path d="m-38.971 212.26a4.9361 5.0558 0 0 1 -4.9361 5.0558 4.9361 5.0558 0 0 1 -4.9361-5.0558 4.9361 5.0558 0 0 1 4.9361-5.0558 4.9361 5.0558 0 0 1 4.9361 5.0558"/><path d="m-40.865 211.25a1.3064 1.2951 0 0 1 -1.3064 1.2951 1.3064 1.2951 0 0 1 -1.3064-1.2951 1.3064 1.2951 0 0 1 1.3064-1.2951 1.3064 1.2951 0 0 1 1.3064 1.2951" fill="#fff"/></g><path d="m-146.12 256.78c0 2.5154-2.0392 4.5546-4.5546 4.5546s-4.5546-2.0392-4.5546-4.5546c0-.6049 2.0392-2.2261 4.5546-2.2261s4.5546 1.7698 4.5546 2.2261z"/></g></svg>