<?xml version="1.0" encoding="UTF-8" standalone="no"?>
<!DOCTYPE svg PUBLIC "-//W3C//DTD SVG 1.1//EN" "http://www.w3.org/Graphics/SVG/1.1/DTD/svg11.dtd">
<svg width="100%" height="100%" viewBox="0 0 100 200" version="1.1" xmlns="http://www.w3.org/2000/svg" xmlns:xlink="http://www.w3.org/1999/xlink" xml:space="preserve" xmlns:serif="http://www.serif.com/" style="fill-rule:evenodd;clip-rule:evenodd;stroke-linejoin:round;stroke-miterlimit:2;">
    <g transform="matrix(6.22489,0,0,6.22489,51.0003,104.161)">
        <path d="M0,14.459C3.993,14.459 7.229,11.222 7.229,7.23C7.229,3.237 3.993,0 0,0C-3.993,0 -7.229,3.237 -7.229,7.23C-7.229,11.222 -3.993,14.459 0,14.459" style="fill-rule:nonzero;"/>
    </g>
    <g transform="matrix(6.22489,0,0,6.22489,51.0003,5.57284)">
        <path d="M0,14.459C3.993,14.459 7.229,11.222 7.229,7.23C7.229,3.237 3.993,0 0,0C-3.993,0 -7.229,3.237 -7.229,7.23C-7.229,11.222 -3.993,14.459 0,14.459" style="fill:rgb(181,31,8);fill-rule:nonzero;"/>
    </g>
    <g transform="matrix(6.22489,0,0,6.22489,88.9958,169.008)">
        <path d="M0,-4.165C0,-5.853 -1.395,-7.221 -3.115,-7.221C-3.97,-7.221 -4.744,-6.883 -5.307,-6.337L-6.101,-5.558L-6.75,-6.195C-7.321,-6.834 -8.158,-7.238 -9.093,-7.238C-10.813,-7.238 -12.208,-5.87 -12.208,-4.182C-12.208,-3.3 -11.827,-2.506 -11.217,-1.948L-6.098,3.073L-1.091,-1.843C-0.466,-2.42 0,-3.235 0,-4.165" style="fill:white;fill-rule:nonzero;"/>
    </g>
    <g transform="matrix(6.22489,0,0,6.22489,88.9958,70.4194)">
        <path d="M0,-4.165C0,-5.853 -1.395,-7.221 -3.115,-7.221C-3.97,-7.221 -4.744,-6.883 -5.307,-6.337L-6.101,-5.558L-6.75,-6.195C-7.321,-6.834 -8.158,-7.238 -9.093,-7.238C-10.813,-7.238 -12.208,-5.87 -12.208,-4.182C-12.208,-3.3 -11.827,-2.506 -11.217,-1.948L-6.098,3.073L-1.091,-1.843C-0.466,-2.42 0,-3.235 0,-4.165" style="fill:rgb(253,212,154);fill-rule:nonzero;"/>
    </g>
    <g transform="matrix(0,-6.22489,-6.22489,0,37.9859,143.391)">
        <path d="M-0.928,-0.928C-1.43,-0.928 -1.837,-0.513 -1.837,-0C-1.837,0.513 -1.43,0.928 -0.928,0.928C-0.425,0.928 -0.017,0.513 -0.017,-0C-0.017,-0.513 -0.425,-0.928 -0.928,-0.928" style="fill-rule:nonzero;"/>
    </g>
    <g transform="matrix(0,-6.22489,-6.22489,0,37.9859,44.8027)">
        <path d="M-0.928,-0.928C-1.43,-0.928 -1.837,-0.513 -1.837,-0C-1.837,0.513 -1.43,0.928 -0.928,0.928C-0.425,0.928 -0.017,0.513 -0.017,-0C-0.017,-0.513 -0.425,-0.928 -0.928,-0.928" style="fill-rule:nonzero;"/>
    </g>
    <g transform="matrix(0,-6.22489,-6.22489,0,64.0146,143.391)">
        <path d="M-0.928,-0.928C-1.43,-0.928 -1.837,-0.513 -1.837,0.001C-1.837,0.513 -1.43,0.928 -0.928,0.928C-0.425,0.928 -0.017,0.513 -0.017,0.001C-0.017,-0.513 -0.425,-0.928 -0.928,-0.928" style="fill-rule:nonzero;"/>
    </g>
    <g transform="matrix(0,-6.22489,-6.22489,0,64.0146,44.8027)">
        <path d="M-0.928,-0.928C-1.43,-0.928 -1.837,-0.513 -1.837,0.001C-1.837,0.513 -1.43,0.928 -0.928,0.928C-0.425,0.928 -0.017,0.513 -0.017,0.001C-0.017,-0.513 -0.425,-0.928 -0.928,-0.928" style="fill-rule:nonzero;"/>
    </g>
</svg>
