<?xml version="1.0" encoding="UTF-8" standalone="no"?>
<!DOCTYPE svg PUBLIC "-//W3C//DTD SVG 1.1//EN" "http://www.w3.org/Graphics/SVG/1.1/DTD/svg11.dtd">
<svg width="100%" height="100%" viewBox="0 0 400 800" version="1.1" xmlns="http://www.w3.org/2000/svg" xmlns:xlink="http://www.w3.org/1999/xlink" xml:space="preserve" xmlns:serif="http://www.serif.com/" style="fill-rule:evenodd;clip-rule:evenodd;stroke-linejoin:round;stroke-miterlimit:2;">
    <g transform="matrix(0,-92.4931,-92.4931,0,380.15,500.702)">
        <g transform="matrix(0,-0.23362,-0.23362,0,1.36416,1.92042)">
            <path d="M0,-16.191L-1.336,-15.254L-2.91,-15.711L-3.839,-14.383L-5.477,-14.284L-5.886,-12.724L-7.392,-12.082L-7.232,-10.479L-8.424,-9.37L-7.715,-7.916L-8.447,-6.475L-7.275,-5.347L-7.461,-3.747L-5.966,-3.08L-5.583,-1.514L-3.946,-1.39L-3.039,-0.046L-0.244,-0.834L2.773,0L3.702,-1.328L5.341,-1.427L5.749,-2.987L7.255,-3.63L7.096,-5.234L8.287,-6.342L7.578,-7.795L8.311,-9.237L7.138,-10.364L7.324,-11.965L5.829,-12.632L5.446,-14.198L3.809,-14.323L2.902,-15.665L1.32,-15.233L0,-16.191Z" style="fill-rule:nonzero;"/>
        </g>
        <g transform="matrix(0,-0.23362,-0.23362,0,-2.82714,1.92042)">
            <path d="M0,-16.191L-1.336,-15.254L-2.91,-15.711L-3.839,-14.383L-5.477,-14.284L-5.886,-12.724L-7.392,-12.082L-7.232,-10.479L-8.424,-9.37L-7.715,-7.916L-8.447,-6.475L-7.275,-5.347L-7.461,-3.747L-5.966,-3.08L-5.583,-1.514L-3.946,-1.39L-3.039,-0.046L-0.244,-0.834L2.773,0L3.702,-1.328L5.341,-1.427L5.749,-2.987L7.255,-3.63L7.096,-5.234L8.287,-6.342L7.578,-7.795L8.311,-9.237L7.138,-10.364L7.324,-11.965L5.829,-12.632L5.446,-14.198L3.809,-14.323L2.902,-15.665L1.32,-15.233L0,-16.191Z" style="fill:rgb(180,31,8);fill-rule:nonzero;"/>
        </g>
        <g transform="matrix(0,-0.23362,-0.23362,0,2.05981,0.438289)">
            <path d="M0,-4.38C0,-6.155 -1.467,-7.594 -3.276,-7.594C-4.175,-7.594 -4.988,-7.238 -5.58,-6.664L-5.581,-6.664L-6.415,-5.845L-7.098,-6.515C-7.698,-7.187 -8.579,-7.611 -9.561,-7.611C-11.37,-7.611 -12.837,-6.173 -12.837,-4.398C-12.837,-3.47 -12.436,-2.635 -11.796,-2.049L-6.412,3.231L-1.148,-1.938C-0.49,-2.545 0,-3.402 0,-4.38" style="fill:white;fill-rule:nonzero;"/>
        </g>
        <g transform="matrix(0,-0.23362,-0.23362,0,-2.13149,0.438289)">
            <path d="M0,-4.38C0,-6.155 -1.467,-7.594 -3.276,-7.594C-4.175,-7.594 -4.988,-7.238 -5.58,-6.664L-5.581,-6.664L-6.415,-5.845L-7.098,-6.515C-7.698,-7.187 -8.579,-7.611 -9.561,-7.611C-11.37,-7.611 -12.837,-6.173 -12.837,-4.398C-12.837,-3.47 -12.436,-2.635 -11.796,-2.049L-6.412,3.231L-1.148,-1.938C-0.49,-2.545 0,-3.402 0,-4.38" style="fill:rgb(253,212,154);fill-rule:nonzero;"/>
        </g>
        <g transform="matrix(0.23362,0,0,0.23362,1.6509,1.99457)">
            <path d="M-0.626,-1.122C-0.406,-0.898 -0.27,-0.589 -0.27,-0.248C-0.27,0.093 -0.406,0.403 -0.626,0.626C-1.097,0.622 -1.478,0.233 -1.478,-0.248C-1.478,-0.728 -1.097,-1.118 -0.626,-1.122" style="fill:rgb(29,30,32);fill-rule:nonzero;"/>
        </g>
        <g transform="matrix(0.23362,0,0,0.23362,-2.54039,1.99457)">
            <path d="M-0.626,-1.122C-0.406,-0.898 -0.27,-0.589 -0.27,-0.248C-0.27,0.093 -0.406,0.403 -0.626,0.626C-1.097,0.622 -1.478,0.233 -1.478,-0.248C-1.478,-0.728 -1.097,-1.118 -0.626,-1.122" style="fill:rgb(29,30,32);fill-rule:nonzero;"/>
        </g>
        <g transform="matrix(0.23362,0,0,0.23362,2.97149,2.37803)">
            <path d="M-0.776,-0.776C-1.196,-0.776 -1.537,-0.429 -1.537,-0C-1.537,0.429 -1.196,0.776 -0.776,0.776C-0.355,0.776 -0.014,0.429 -0.014,-0C-0.014,-0.429 -0.355,-0.776 -0.776,-0.776" style="fill:rgb(29,30,32);fill-rule:nonzero;"/>
        </g>
        <g transform="matrix(0.23362,0,0,0.23362,-1.21981,2.37803)">
            <path d="M-0.776,-0.776C-1.196,-0.776 -1.537,-0.429 -1.537,-0C-1.537,0.429 -1.196,0.776 -0.776,0.776C-0.355,0.776 -0.014,0.429 -0.014,-0C-0.014,-0.429 -0.355,-0.776 -0.776,-0.776" style="fill:rgb(29,30,32);fill-rule:nonzero;"/>
        </g>
        <g transform="matrix(0.23362,0,0,0.23362,2.97149,1.49327)">
            <path d="M-0.776,-0.776C-1.196,-0.776 -1.537,-0.429 -1.537,0.001C-1.537,0.429 -1.196,0.776 -0.776,0.776C-0.355,0.776 -0.014,0.429 -0.014,0.001C-0.014,-0.429 -0.355,-0.776 -0.776,-0.776" style="fill:rgb(29,30,32);fill-rule:nonzero;"/>
        </g>
        <g transform="matrix(0.23362,0,0,0.23362,-1.21981,1.49327)">
            <path d="M-0.776,-0.776C-1.196,-0.776 -1.537,-0.429 -1.537,0.001C-1.537,0.429 -1.196,0.776 -0.776,0.776C-0.355,0.776 -0.014,0.429 -0.014,0.001C-0.014,-0.429 -0.355,-0.776 -0.776,-0.776" style="fill:rgb(29,30,32);fill-rule:nonzero;"/>
        </g>
    </g>
</svg>
